<svg width="265" height="60" viewBox="0 0 265 60" fill="none" xmlns="http://www.w3.org/2000/svg">
<path d="M14.0064 58.3775C12.7626 56.0155 1.88536 35.0037 2.00091 24.2546C2.14688 11.0979 9.49672 1.90831 21.1829 0.2698C27.441 -0.608732 32.7504 0.668027 36.5364 3.9572C39.039 6.13073 42.0191 10.2437 42.0191 17.4939C42.0191 17.5881 42.0191 17.6824 42.0191 17.7766C45.0235 19.4911 48.2499 22.534 50.1869 27.9359C52.1848 33.5111 51.6374 40.1077 48.6087 47.0174C46.4497 51.9421 43.7372 55.4015 43.6247 55.5474L36.3722 49.8232C38.6255 46.9414 43.9531 37.9281 41.49 31.0518C40.9882 29.6505 40.3284 28.4771 39.5164 27.5316C38.2788 30.146 36.5941 32.6296 34.499 34.5113C31.5341 37.1712 28.0462 38.3659 24.4184 37.9767C20.4044 37.542 17.5338 35.0858 16.731 31.4075C15.691 26.6227 18.6133 20.8165 23.5274 17.8982C26.173 16.3296 29.4024 15.4936 32.6501 15.448C32.3673 13.4539 31.6405 11.9369 30.4789 10.9277C28.3229 9.05208 24.9353 9.07032 22.4722 9.41687C15.4295 10.4048 11.3395 15.8493 11.2452 24.3549C11.1753 30.7023 17.92 45.9565 22.1894 54.0791L14.0094 58.3745L14.0064 58.3775ZM30.4181 24.9812C29.5727 25.1909 28.8246 25.4949 28.2408 25.8415C26.8846 26.647 26.1152 27.9633 25.8537 28.8114C26.4619 28.7902 27.289 28.5622 28.3199 27.638C29.1105 26.9267 29.816 26.0026 30.4181 24.9812Z" fill="#6663FC"/>
<path d="M232.915 59.997C223.695 59.997 217.829 57.5773 216.874 57.1547C216.111 56.8325 211.106 54.6316 205.562 50.017C201.852 54.5586 196.901 57.7779 190.741 57.9542C190.537 57.9603 190.333 57.9633 190.132 57.9633C175.995 57.9633 168.612 43.7487 168.071 33.9694C167.21 18.4537 172.523 6.10867 172.751 5.58885L181.22 9.28233C181.174 9.38872 176.561 20.2199 177.297 33.4556C177.902 44.3385 185.96 48.722 190.3 48.722C190.361 48.722 190.418 48.722 190.479 48.722C193.064 48.6491 196.29 46.8403 199.006 43.4356C197.747 41.8974 196.537 40.2164 195.424 38.3864C190.123 29.671 188.959 19.2927 192.529 12.5563C194.454 8.92666 197.631 6.74097 201.25 6.56162C204.419 6.39746 207.234 7.49486 209.387 9.72007C213.915 14.3985 214.235 22.9132 213.709 29.2362C213.38 33.1912 212.27 37.7145 210.397 41.9826C215.521 46.5454 220.402 48.6217 220.475 48.6521L220.669 48.7372C220.709 48.7555 227.891 51.9109 239.301 50.3088C245.097 49.4972 250.333 46.7856 252.328 43.5663C253.255 42.0707 253.417 40.566 252.836 38.8271C252.088 36.5807 246.222 36.0639 241.046 35.6048C239.064 35.4316 237.014 35.2492 234.949 34.9725C224.005 33.5073 216.911 25.4789 218.078 15.885C219.374 5.26662 231.461 -0.0258528 241.922 1.15059C253.493 2.45775 258.212 8.1454 261.736 16.2863L253.255 19.9554C250.315 13.1612 247.657 11.0941 240.885 10.3311C233.645 9.51336 227.718 13.1795 227.253 17.0037C226.812 20.6151 229.418 24.9105 236.178 25.8164C238.036 26.0656 239.979 26.2359 241.861 26.4031C249.868 27.1083 258.939 27.9078 261.606 35.9058C263.056 40.2589 262.567 44.5908 260.186 48.4302C256.044 55.1119 247.347 58.5075 240.587 59.4559C237.832 59.842 235.265 60.0001 232.918 60.0001L232.915 59.997ZM201.852 15.7816C201.81 15.7816 201.761 15.7816 201.712 15.7847C201.445 15.7968 201.034 16.2376 200.697 16.879C199.286 19.542 198.82 26.1872 203.321 33.5833C203.406 33.7201 203.488 33.8569 203.573 33.9937C204.017 32.2913 204.336 30.4461 204.501 28.4641C205.097 21.3203 203.929 17.3593 202.746 16.1373C202.551 15.9367 202.357 15.7786 201.849 15.7786L201.852 15.7816Z" fill="#6663FC"/>
<path d="M102.586 56.7839C101.686 53.8382 93.9344 27.6586 99.2043 15.4138C104.447 3.2451 113.612 0.861818 120.357 0.983414C125.131 1.07765 129.835 3.82572 133.609 8.71996C133.621 8.73516 133.63 8.74732 133.642 8.76252C141.543 3.33022 149.662 1.06245 150.039 0.956055L152.484 9.86601C152.411 9.88729 144.948 11.997 138.179 16.8639C141.239 24.5275 142.041 33.638 140.092 41.6695C137.167 53.7166 130.769 54.3307 128.154 54.0388C122.318 53.3822 118.158 46.889 118.04 38.2465C117.918 29.3062 120.931 21.1744 126.63 14.818C126.518 14.6599 126.402 14.5079 126.286 14.359C124.289 11.7659 122.06 10.2551 120.171 10.2186C114.302 10.1031 110.34 12.915 107.691 19.0678C104.723 25.9623 108.403 44.2047 111.42 54.0844L102.583 56.7869L102.586 56.7839ZM130.93 24.4667C128.479 28.458 127.214 33.1152 127.281 38.1189C127.33 41.5722 128.357 43.694 129.035 44.5361C129.525 43.9312 130.376 42.5206 131.115 39.4868C132.377 34.2916 132.079 29.0356 130.933 24.4636L130.93 24.4667Z" fill="#6663FC"/>
<path d="M75.518 56.2701C73.7148 56.2701 71.7169 56.0118 69.5092 55.4068C62.9379 53.6042 58.1636 49.6827 55.7036 44.0589C52.9668 37.7997 53.0519 29.592 55.959 19.6667C58.0177 12.6445 60.7758 7.29429 60.8944 7.06934L69.0957 11.3252C66.441 16.4596 60.3744 31.6986 64.1755 40.3654C65.5165 43.4235 68.0587 45.4268 71.9541 46.4938C76.853 47.8375 79.0668 46.3844 80.3075 45.1715C85.1516 40.4383 85.848 27.0324 83.4609 17.481L92.4254 15.2406C94.9311 25.2571 95.4906 43.2503 86.7694 51.7772C84.4917 54.0024 80.8639 56.2641 75.5241 56.2641L75.518 56.2701Z" fill="#6663FC"/>
</svg>
